<svg width="25" height="25" viewBox="0 0 25 25" fill="none" xmlns="http://www.w3.org/2000/svg">
<path d="M13.5415 2.0835C16.0279 2.0835 18.4125 3.07122 20.1706 4.82937C21.9288 6.58752 22.9165 8.97209 22.9165 11.4585" stroke="#1D1D1D" stroke-width="2" stroke-linecap="round" stroke-linejoin="round"/>
<path d="M13.5415 6.25C14.9228 6.25 16.2476 6.79873 17.2244 7.77549C18.2011 8.75224 18.7498 10.077 18.7498 11.4583" stroke="#1D1D1D" stroke-width="2" stroke-linecap="round" stroke-linejoin="round"/>
<path d="M14.4085 17.2585C14.6236 17.3573 14.866 17.3799 15.0957 17.3225C15.3254 17.2651 15.5286 17.1312 15.672 16.9429L16.0418 16.4585C16.2359 16.1998 16.4875 15.9897 16.7768 15.8451C17.0661 15.7005 17.3851 15.6252 17.7085 15.6252H20.8335C21.386 15.6252 21.9159 15.8447 22.3066 16.2354C22.6973 16.6261 22.9168 17.156 22.9168 17.7085V20.8335C22.9168 21.386 22.6973 21.9159 22.3066 22.3066C21.9159 22.6973 21.386 22.9168 20.8335 22.9168C15.8607 22.9168 11.0916 20.9414 7.57524 17.4251C4.05894 13.9088 2.0835 9.13964 2.0835 4.16683C2.0835 3.61429 2.30299 3.08439 2.69369 2.69369C3.08439 2.30299 3.61429 2.0835 4.16683 2.0835H7.29183C7.84436 2.0835 8.37427 2.30299 8.76497 2.69369C9.15567 3.08439 9.37516 3.61429 9.37516 4.16683V7.29183C9.37516 7.61526 9.29986 7.93424 9.15522 8.22352C9.01058 8.51281 8.80057 8.76444 8.54183 8.9585L8.05433 9.32412C7.8631 9.47014 7.72831 9.67786 7.67286 9.91199C7.61741 10.1461 7.64473 10.3922 7.75016 10.6085C9.17379 13.5 11.5152 15.8385 14.4085 17.2585Z" stroke="#1D1D1D" stroke-width="2" stroke-linecap="round" stroke-linejoin="round"/>
</svg>
