<svg width="30" height="30" viewBox="0 0 30 30" fill="none" xmlns="http://www.w3.org/2000/svg">
<path d="M18.75 26.25V16.25C18.75 15.9185 18.6183 15.6005 18.3839 15.3661C18.1495 15.1317 17.8315 15 17.5 15H12.5C12.1685 15 11.8505 15.1317 11.6161 15.3661C11.3817 15.6005 11.25 15.9185 11.25 16.25V26.25" stroke="#1D1D1D" stroke-width="2" stroke-linecap="round" stroke-linejoin="round"/>
<path d="M3.75 12.4998C3.74991 12.1362 3.82917 11.7769 3.98223 11.447C4.1353 11.1171 4.3585 10.8246 4.63625 10.5898L13.3862 3.09109C13.8375 2.70972 14.4092 2.50049 15 2.50049C15.5908 2.50049 16.1625 2.70972 16.6138 3.09109L25.3638 10.5898C25.6415 10.8246 25.8647 11.1171 26.0178 11.447C26.1708 11.7769 26.2501 12.1362 26.25 12.4998V23.7498C26.25 24.4129 25.9866 25.0488 25.5178 25.5176C25.0489 25.9864 24.413 26.2498 23.75 26.2498H6.25C5.58696 26.2498 4.95107 25.9864 4.48223 25.5176C4.01339 25.0488 3.75 24.4129 3.75 23.7498V12.4998Z" stroke="#1D1D1D" stroke-width="2" stroke-linecap="round" stroke-linejoin="round"/>
</svg>
